<mxfile host="app.diagrams.net" modified="2021-10-04T01:45:52.067Z" agent="5.0 (Macintosh; Intel Mac OS X 10_15_7) AppleWebKit/537.36 (KHTML, like Gecko) Chrome/94.0.4606.61 Safari/537.36" etag="SsTRjbZZQL19pf4CPqL9" version="15.4.1" type="github">
  <diagram id="65Z61_hVnqVzQgmNNrv5" name="Page-1">
    <mxGraphModel dx="1530" dy="942" grid="1" gridSize="10" guides="1" tooltips="1" connect="1" arrows="1" fold="1" page="1" pageScale="1" pageWidth="827" pageHeight="1169" math="0" shadow="0">
      <root>
        <mxCell id="0" />
        <mxCell id="1" parent="0" />
        <mxCell id="ciK2Alsis2nVxxnFHfqV-5" value="Community Member" style="swimlane;horizontal=0;startSize=23;" parent="1" vertex="1">
          <mxGeometry x="160" y="230" width="1330" height="170" as="geometry" />
        </mxCell>
        <mxCell id="Q_MbOnp6p_lb9r1hrwko-6" value="Yes" style="endArrow=open;endFill=1;endSize=12;html=1;rounded=0;edgeStyle=orthogonalEdgeStyle;" parent="ciK2Alsis2nVxxnFHfqV-5" edge="1">
          <mxGeometry width="160" relative="1" as="geometry">
            <mxPoint x="360" y="-110" as="sourcePoint" />
            <mxPoint x="440" y="70" as="targetPoint" />
            <Array as="points">
              <mxPoint x="410" y="-110" />
              <mxPoint x="410" y="70" />
            </Array>
          </mxGeometry>
        </mxCell>
        <mxCell id="Q_MbOnp6p_lb9r1hrwko-7" value="checkEnrolledEvent" style="ellipse;whiteSpace=wrap;html=1;" parent="ciK2Alsis2nVxxnFHfqV-5" vertex="1">
          <mxGeometry x="440" y="40" width="110" height="60" as="geometry" />
        </mxCell>
        <mxCell id="Q_MbOnp6p_lb9r1hrwko-9" value="" style="endArrow=classic;html=1;rounded=0;edgeStyle=orthogonalEdgeStyle;" parent="ciK2Alsis2nVxxnFHfqV-5" target="Q_MbOnp6p_lb9r1hrwko-8" edge="1">
          <mxGeometry width="50" height="50" relative="1" as="geometry">
            <mxPoint x="490" y="40" as="sourcePoint" />
            <mxPoint x="590" y="60" as="targetPoint" />
          </mxGeometry>
        </mxCell>
        <mxCell id="Q_MbOnp6p_lb9r1hrwko-26" value="updateEnrolledEvent" style="ellipse;whiteSpace=wrap;html=1;" parent="ciK2Alsis2nVxxnFHfqV-5" vertex="1">
          <mxGeometry x="990" y="40" width="100" height="70" as="geometry" />
        </mxCell>
        <mxCell id="Q_MbOnp6p_lb9r1hrwko-27" value="" style="endArrow=open;endFill=1;endSize=12;html=1;rounded=0;edgeStyle=orthogonalEdgeStyle;entryX=0;entryY=1;entryDx=0;entryDy=0;" parent="ciK2Alsis2nVxxnFHfqV-5" target="Q_MbOnp6p_lb9r1hrwko-50" edge="1">
          <mxGeometry width="160" relative="1" as="geometry">
            <mxPoint x="1030" y="40" as="sourcePoint" />
            <mxPoint x="1140" y="-120" as="targetPoint" />
            <Array as="points">
              <mxPoint x="1030" y="-126" />
            </Array>
          </mxGeometry>
        </mxCell>
        <mxCell id="ciK2Alsis2nVxxnFHfqV-6" value="EducationEvent" style="swimlane;horizontal=0;" parent="1" vertex="1">
          <mxGeometry x="160" y="399" width="1330" height="200" as="geometry" />
        </mxCell>
        <mxCell id="Q_MbOnp6p_lb9r1hrwko-15" value="enroll" style="ellipse;whiteSpace=wrap;html=1;" parent="ciK2Alsis2nVxxnFHfqV-6" vertex="1">
          <mxGeometry x="667" y="111" width="110" height="60" as="geometry" />
        </mxCell>
        <mxCell id="Q_MbOnp6p_lb9r1hrwko-16" value="checkCapacity" style="ellipse;whiteSpace=wrap;html=1;" parent="ciK2Alsis2nVxxnFHfqV-6" vertex="1">
          <mxGeometry x="830" y="111" width="110" height="60" as="geometry" />
        </mxCell>
        <mxCell id="Q_MbOnp6p_lb9r1hrwko-17" value="" style="endArrow=open;endFill=1;endSize=12;html=1;rounded=0;edgeStyle=orthogonalEdgeStyle;" parent="ciK2Alsis2nVxxnFHfqV-6" edge="1">
          <mxGeometry width="160" relative="1" as="geometry">
            <mxPoint x="740" y="141" as="sourcePoint" />
            <mxPoint x="830" y="141" as="targetPoint" />
          </mxGeometry>
        </mxCell>
        <mxCell id="Q_MbOnp6p_lb9r1hrwko-18" value="" style="endArrow=open;endFill=1;endSize=12;html=1;rounded=0;edgeStyle=orthogonalEdgeStyle;entryX=0.5;entryY=1;entryDx=0;entryDy=0;" parent="ciK2Alsis2nVxxnFHfqV-6" target="Q_MbOnp6p_lb9r1hrwko-19" edge="1">
          <mxGeometry width="160" relative="1" as="geometry">
            <mxPoint x="880" y="111" as="sourcePoint" />
            <mxPoint x="880" y="-239" as="targetPoint" />
          </mxGeometry>
        </mxCell>
        <mxCell id="ciK2Alsis2nVxxnFHfqV-7" value="CPWS" style="swimlane;horizontal=0;" parent="1" vertex="1">
          <mxGeometry x="160" y="40" width="1330" height="190" as="geometry" />
        </mxCell>
        <mxCell id="ciK2Alsis2nVxxnFHfqV-8" value="" style="html=1;verticalAlign=bottom;startArrow=circle;startFill=1;endArrow=open;startSize=6;endSize=8;rounded=0;edgeStyle=orthogonalEdgeStyle;entryX=0;entryY=0.5;entryDx=0;entryDy=0;" parent="ciK2Alsis2nVxxnFHfqV-7" edge="1">
          <mxGeometry width="80" relative="1" as="geometry">
            <mxPoint x="36" y="80" as="sourcePoint" />
            <mxPoint x="110" y="80" as="targetPoint" />
          </mxGeometry>
        </mxCell>
        <mxCell id="Q_MbOnp6p_lb9r1hrwko-1" value="getCommunityMember&lt;br&gt;ById(userId)" style="ellipse;whiteSpace=wrap;html=1;" parent="ciK2Alsis2nVxxnFHfqV-7" vertex="1">
          <mxGeometry x="110" y="50" width="110" height="64" as="geometry" />
        </mxCell>
        <mxCell id="Q_MbOnp6p_lb9r1hrwko-2" value="" style="endArrow=open;endFill=1;endSize=12;html=1;rounded=0;edgeStyle=orthogonalEdgeStyle;" parent="ciK2Alsis2nVxxnFHfqV-7" edge="1">
          <mxGeometry width="160" relative="1" as="geometry">
            <mxPoint x="220" y="80" as="sourcePoint" />
            <mxPoint x="280" y="80" as="targetPoint" />
          </mxGeometry>
        </mxCell>
        <mxCell id="Q_MbOnp6p_lb9r1hrwko-3" value="CommunityMember&lt;br&gt;found?" style="rhombus;whiteSpace=wrap;html=1;" parent="ciK2Alsis2nVxxnFHfqV-7" vertex="1">
          <mxGeometry x="280" y="50" width="80" height="58" as="geometry" />
        </mxCell>
        <mxCell id="Q_MbOnp6p_lb9r1hrwko-4" value="" style="endArrow=open;endFill=1;endSize=12;html=1;rounded=0;edgeStyle=orthogonalEdgeStyle;exitX=0.5;exitY=0;exitDx=0;exitDy=0;" parent="ciK2Alsis2nVxxnFHfqV-7" source="Q_MbOnp6p_lb9r1hrwko-3" edge="1">
          <mxGeometry width="160" relative="1" as="geometry">
            <mxPoint x="320" y="40" as="sourcePoint" />
            <mxPoint x="1050" y="20" as="targetPoint" />
            <Array as="points">
              <mxPoint x="320" y="20" />
              <mxPoint x="770" y="20" />
            </Array>
          </mxGeometry>
        </mxCell>
        <mxCell id="Q_MbOnp6p_lb9r1hrwko-5" value="No" style="edgeLabel;html=1;align=center;verticalAlign=middle;resizable=0;points=[];" parent="Q_MbOnp6p_lb9r1hrwko-4" vertex="1" connectable="0">
          <mxGeometry x="-0.7429" y="1" relative="1" as="geometry">
            <mxPoint as="offset" />
          </mxGeometry>
        </mxCell>
        <mxCell id="Q_MbOnp6p_lb9r1hrwko-8" value="enrolled?" style="rhombus;whiteSpace=wrap;html=1;" parent="ciK2Alsis2nVxxnFHfqV-7" vertex="1">
          <mxGeometry x="450" y="59" width="80" height="40" as="geometry" />
        </mxCell>
        <mxCell id="Q_MbOnp6p_lb9r1hrwko-11" value="" style="endArrow=open;endFill=1;endSize=12;html=1;rounded=0;edgeStyle=orthogonalEdgeStyle;" parent="ciK2Alsis2nVxxnFHfqV-7" edge="1">
          <mxGeometry width="160" relative="1" as="geometry">
            <mxPoint x="490" y="60" as="sourcePoint" />
            <mxPoint x="1140" y="50" as="targetPoint" />
            <Array as="points">
              <mxPoint x="490" y="50" />
            </Array>
          </mxGeometry>
        </mxCell>
        <mxCell id="Q_MbOnp6p_lb9r1hrwko-12" value="Yes" style="edgeLabel;html=1;align=center;verticalAlign=middle;resizable=0;points=[];" parent="Q_MbOnp6p_lb9r1hrwko-11" vertex="1" connectable="0">
          <mxGeometry x="-0.1419" y="1" relative="1" as="geometry">
            <mxPoint as="offset" />
          </mxGeometry>
        </mxCell>
        <mxCell id="Q_MbOnp6p_lb9r1hrwko-19" value="Is enrollment&lt;br&gt;accepted?" style="rhombus;whiteSpace=wrap;html=1;" parent="ciK2Alsis2nVxxnFHfqV-7" vertex="1">
          <mxGeometry x="840" y="88.5" width="80" height="49" as="geometry" />
        </mxCell>
        <mxCell id="Q_MbOnp6p_lb9r1hrwko-24" value="No" style="endArrow=open;endFill=1;endSize=12;html=1;rounded=0;edgeStyle=orthogonalEdgeStyle;" parent="ciK2Alsis2nVxxnFHfqV-7" edge="1">
          <mxGeometry width="160" relative="1" as="geometry">
            <mxPoint x="880" y="90" as="sourcePoint" />
            <mxPoint x="1050" y="10" as="targetPoint" />
            <Array as="points">
              <mxPoint x="880" y="10" />
              <mxPoint x="1040" y="10" />
            </Array>
          </mxGeometry>
        </mxCell>
        <mxCell id="Q_MbOnp6p_lb9r1hrwko-25" value="" style="endArrow=open;endFill=1;endSize=12;html=1;rounded=0;edgeStyle=orthogonalEdgeStyle;" parent="ciK2Alsis2nVxxnFHfqV-7" edge="1">
          <mxGeometry width="160" relative="1" as="geometry">
            <mxPoint x="920" y="110" as="sourcePoint" />
            <mxPoint x="990" y="270" as="targetPoint" />
            <Array as="points">
              <mxPoint x="930" y="110" />
              <mxPoint x="930" y="270" />
              <mxPoint x="990" y="270" />
            </Array>
          </mxGeometry>
        </mxCell>
        <mxCell id="Q_MbOnp6p_lb9r1hrwko-28" value="Yes" style="edgeLabel;html=1;align=center;verticalAlign=middle;resizable=0;points=[];" parent="Q_MbOnp6p_lb9r1hrwko-25" vertex="1" connectable="0">
          <mxGeometry x="-0.3391" y="1" relative="1" as="geometry">
            <mxPoint as="offset" />
          </mxGeometry>
        </mxCell>
        <mxCell id="Q_MbOnp6p_lb9r1hrwko-32" value="" style="endArrow=open;endFill=1;endSize=12;html=1;rounded=0;edgeStyle=orthogonalEdgeStyle;startArrow=none;" parent="ciK2Alsis2nVxxnFHfqV-7" edge="1" source="EgvuCkfttTQPZoxnpfZL-14">
          <mxGeometry width="160" relative="1" as="geometry">
            <mxPoint x="1050" y="10" as="sourcePoint" />
            <mxPoint x="1220" y="50" as="targetPoint" />
            <Array as="points">
              <mxPoint x="1170" y="10" />
              <mxPoint x="1170" y="50" />
            </Array>
          </mxGeometry>
        </mxCell>
        <mxCell id="EgvuCkfttTQPZoxnpfZL-17" value="Succeed" style="edgeLabel;html=1;align=center;verticalAlign=middle;resizable=0;points=[];" vertex="1" connectable="0" parent="Q_MbOnp6p_lb9r1hrwko-32">
          <mxGeometry x="-0.6276" y="2" relative="1" as="geometry">
            <mxPoint as="offset" />
          </mxGeometry>
        </mxCell>
        <mxCell id="Q_MbOnp6p_lb9r1hrwko-34" value="" style="endArrow=open;endFill=1;endSize=12;html=1;rounded=0;edgeStyle=orthogonalEdgeStyle;" parent="ciK2Alsis2nVxxnFHfqV-7" edge="1">
          <mxGeometry width="160" relative="1" as="geometry">
            <mxPoint x="1140" y="60" as="sourcePoint" />
            <mxPoint x="1220" y="60" as="targetPoint" />
          </mxGeometry>
        </mxCell>
        <mxCell id="Q_MbOnp6p_lb9r1hrwko-44" value="fail" style="edgeLabel;html=1;align=center;verticalAlign=middle;resizable=0;points=[];" parent="Q_MbOnp6p_lb9r1hrwko-34" vertex="1" connectable="0">
          <mxGeometry x="-0.3107" y="3" relative="1" as="geometry">
            <mxPoint as="offset" />
          </mxGeometry>
        </mxCell>
        <mxCell id="Q_MbOnp6p_lb9r1hrwko-45" value="" style="ellipse;html=1;shape=endState;fillColor=#000000;strokeColor=#ff0000;" parent="ciK2Alsis2nVxxnFHfqV-7" vertex="1">
          <mxGeometry x="1260" y="40" width="30" height="30" as="geometry" />
        </mxCell>
        <mxCell id="Q_MbOnp6p_lb9r1hrwko-46" value="" style="endArrow=classic;html=1;rounded=0;edgeStyle=orthogonalEdgeStyle;entryX=0;entryY=0.5;entryDx=0;entryDy=0;" parent="ciK2Alsis2nVxxnFHfqV-7" target="Q_MbOnp6p_lb9r1hrwko-45" edge="1">
          <mxGeometry width="50" height="50" relative="1" as="geometry">
            <mxPoint x="1220" y="55" as="sourcePoint" />
            <mxPoint x="1300" y="50" as="targetPoint" />
          </mxGeometry>
        </mxCell>
        <mxCell id="Q_MbOnp6p_lb9r1hrwko-49" value="" style="ellipse;whiteSpace=wrap;html=1;aspect=fixed;" parent="ciK2Alsis2nVxxnFHfqV-7" vertex="1">
          <mxGeometry x="1216" y="47" width="16" height="16" as="geometry" />
        </mxCell>
        <mxCell id="Q_MbOnp6p_lb9r1hrwko-50" value="" style="ellipse;whiteSpace=wrap;html=1;aspect=fixed;" parent="ciK2Alsis2nVxxnFHfqV-7" vertex="1">
          <mxGeometry x="1133" y="50" width="16" height="16" as="geometry" />
        </mxCell>
        <mxCell id="EgvuCkfttTQPZoxnpfZL-4" value="No" style="endArrow=open;endFill=1;endSize=12;html=1;rounded=0;edgeStyle=orthogonalEdgeStyle;" edge="1" parent="ciK2Alsis2nVxxnFHfqV-7">
          <mxGeometry width="160" relative="1" as="geometry">
            <mxPoint x="530" y="80" as="sourcePoint" />
            <mxPoint x="590" y="80" as="targetPoint" />
          </mxGeometry>
        </mxCell>
        <mxCell id="EgvuCkfttTQPZoxnpfZL-5" value="getEventById" style="ellipse;whiteSpace=wrap;html=1;" vertex="1" parent="ciK2Alsis2nVxxnFHfqV-7">
          <mxGeometry x="587" y="52.5" width="80" height="53" as="geometry" />
        </mxCell>
        <mxCell id="EgvuCkfttTQPZoxnpfZL-6" value="is Null?" style="rhombus;whiteSpace=wrap;html=1;" vertex="1" parent="ciK2Alsis2nVxxnFHfqV-7">
          <mxGeometry x="680" y="59" width="80" height="41" as="geometry" />
        </mxCell>
        <mxCell id="EgvuCkfttTQPZoxnpfZL-9" value="" style="endArrow=open;endFill=1;endSize=12;html=1;rounded=0;edgeStyle=orthogonalEdgeStyle;" edge="1" parent="ciK2Alsis2nVxxnFHfqV-7">
          <mxGeometry width="160" relative="1" as="geometry">
            <mxPoint x="660" y="80" as="sourcePoint" />
            <mxPoint x="680" y="80" as="targetPoint" />
          </mxGeometry>
        </mxCell>
        <mxCell id="EgvuCkfttTQPZoxnpfZL-10" value="" style="endArrow=open;endFill=1;endSize=12;html=1;rounded=0;edgeStyle=orthogonalEdgeStyle;entryX=0;entryY=0.5;entryDx=0;entryDy=0;" edge="1" parent="ciK2Alsis2nVxxnFHfqV-7" target="Q_MbOnp6p_lb9r1hrwko-50">
          <mxGeometry width="160" relative="1" as="geometry">
            <mxPoint x="760" y="80" as="sourcePoint" />
            <mxPoint x="920" y="80" as="targetPoint" />
          </mxGeometry>
        </mxCell>
        <mxCell id="EgvuCkfttTQPZoxnpfZL-11" value="Yes" style="edgeLabel;html=1;align=center;verticalAlign=middle;resizable=0;points=[];" vertex="1" connectable="0" parent="EgvuCkfttTQPZoxnpfZL-10">
          <mxGeometry x="-0.35" y="1" relative="1" as="geometry">
            <mxPoint as="offset" />
          </mxGeometry>
        </mxCell>
        <mxCell id="EgvuCkfttTQPZoxnpfZL-14" value="" style="ellipse;whiteSpace=wrap;html=1;aspect=fixed;" vertex="1" parent="ciK2Alsis2nVxxnFHfqV-7">
          <mxGeometry x="1046" y="6" width="16" height="16" as="geometry" />
        </mxCell>
        <mxCell id="Q_MbOnp6p_lb9r1hrwko-36" value="Text" style="text;html=1;strokeColor=none;fillColor=none;align=center;verticalAlign=middle;whiteSpace=wrap;rounded=0;" parent="1" vertex="1">
          <mxGeometry x="1110" y="240" width="60" height="30" as="geometry" />
        </mxCell>
        <mxCell id="Q_MbOnp6p_lb9r1hrwko-37" value="Text" style="text;html=1;strokeColor=none;fillColor=none;align=center;verticalAlign=middle;whiteSpace=wrap;rounded=0;" parent="1" vertex="1">
          <mxGeometry x="1110" y="240" width="60" height="30" as="geometry" />
        </mxCell>
        <mxCell id="EgvuCkfttTQPZoxnpfZL-12" value="" style="endArrow=open;endFill=1;endSize=12;html=1;rounded=0;edgeStyle=orthogonalEdgeStyle;exitX=0.5;exitY=1;exitDx=0;exitDy=0;" edge="1" parent="1" source="EgvuCkfttTQPZoxnpfZL-6">
          <mxGeometry width="160" relative="1" as="geometry">
            <mxPoint x="870" y="140" as="sourcePoint" />
            <mxPoint x="880" y="510" as="targetPoint" />
          </mxGeometry>
        </mxCell>
        <mxCell id="EgvuCkfttTQPZoxnpfZL-13" value="No" style="edgeLabel;html=1;align=center;verticalAlign=middle;resizable=0;points=[];" vertex="1" connectable="0" parent="EgvuCkfttTQPZoxnpfZL-12">
          <mxGeometry x="-0.0649" relative="1" as="geometry">
            <mxPoint as="offset" />
          </mxGeometry>
        </mxCell>
      </root>
    </mxGraphModel>
  </diagram>
</mxfile>
